<svg xmlns="http://www.w3.org/2000/svg" version="1.1" xmlns:xlink="http://www.w3.org/1999/xlink" width="58" height="47"><svg xmlns="http://www.w3.org/2000/svg" version="1.1" xmlns:xlink="http://www.w3.org/1999/xlink" width="58" height="47"><svg width="58" height="47" viewBox="0 0 58 47" fill="none" xmlns="http://www.w3.org/2000/svg">
<path d="M8.93023 46.603H48.1334V46.0102H8.93023V46.603ZM56.4732 46.603H57.0659V0H56.4732V46.603ZM0 46.603H0.592723V0H0V46.603ZM8.93023 0.592724H48.1334V0H8.93023V0.592724ZM26.103 29.7612C24.1582 34.1789 22.9056 34.7716 19.4117 34.7716H15.522C14.5009 34.7716 14.2046 34.2113 14.2046 33.2227V23.0723H17.8952C20.8611 23.0723 21.521 24.1929 22.0813 26.5337H22.2781V19.3145H22.0813C21.521 21.7525 20.8611 22.5444 17.8952 22.5444H14.2046V11.8337H18.9186C22.512 11.8337 23.5978 12.4935 25.2788 16.2513H25.4756L25.0472 11.3081H8.93023V11.5049C11.1715 11.5049 11.3034 12.989 11.3034 15.427V31.1805C11.3034 33.6186 11.1715 35.1027 8.93023 35.1027V35.2995H25.5404L26.2975 29.7612H26.1007H26.103ZM48.1334 11.3058H40.4859V11.5026C42.7271 11.5026 42.8591 12.9867 42.8591 15.4247V22.5768H32.7411V15.4247C32.7411 12.9867 32.8731 11.5026 35.1143 11.5026V11.3058H27.4668V11.5026C29.708 11.5026 29.84 12.9867 29.84 15.4247V31.1782C29.84 33.6163 29.708 35.1004 27.4668 35.1004V35.2972H35.1143V35.1004C32.8731 35.1004 32.7411 33.6163 32.7411 31.1782V23.1695H42.8591V31.1782C42.8591 33.6163 42.7271 35.1004 40.4859 35.1004V35.2972H48.1334V35.1004C45.8922 35.1004 45.7602 33.6163 45.7602 31.1782V15.4247C45.7602 12.9867 45.8922 11.5026 48.1334 11.5026V11.3058Z" fill="currentColor"></path>
</svg></svg><style>@media (prefers-color-scheme: light) { :root { filter: none; } }
@media (prefers-color-scheme: dark) { :root { filter: none; } }
</style></svg>